<svg viewBox="0 0 176 335" xmlns="http://www.w3.org/2000/svg" role="img" aria-label="Somacord">
  <path d="M 80.0,5.0 C 69.2,6.7 55.0,12.0 46.0,17.0 C 37.0,22.0 31.5,27.8 26.0,35.0 C 20.5,42.2 15.5,50.5 13.0,60.0 C 10.5,69.5 9.3,81.8 11.0,92.0 C 12.7,102.2 18.0,112.8 23.0,121.0 C 28.0,129.2 27.0,130.0 41.0,141.0 C 55.0,152.0 92.0,175.5 107.0,187.0 C 122.0,198.5 125.0,202.3 131.0,210.0 C 137.0,217.7 141.0,224.2 143.0,233.0 C 145.0,241.8 145.0,254.3 143.0,263.0 C 141.0,271.7 137.0,278.5 131.0,285.0 C 125.0,291.5 116.2,298.8 107.0,302.0 C 97.8,305.2 85.0,305.5 76.0,304.0 C 67.0,302.5 59.5,298.0 53.0,293.0 C 46.5,288.0 40.7,280.7 37.0,274.0 C 33.3,267.3 31.5,260.3 31.0,253.0 C 30.5,245.7 30.0,239.2 34.0,230.0 C 38.0,220.8 51.8,204.5 55.0,198.0 C 58.2,191.5 55.2,192.0 53.0,191.0 C 50.8,190.0 47.5,189.3 42.0,192.0 C 36.5,194.7 25.5,201.3 20.0,207.0 C 14.5,212.7 11.5,218.7 9.0,226.0 C 6.5,233.3 5.0,243.0 5.0,251.0 C 5.0,259.0 7.2,267.7 9.0,274.0 C 10.8,280.3 11.5,282.7 16.0,289.0 C 20.5,295.3 27.8,305.7 36.0,312.0 C 44.2,318.3 55.5,324.0 65.0,327.0 C 74.5,330.0 82.2,331.3 93.0,330.0 C 103.8,328.7 120.2,324.0 130.0,319.0 C 139.8,314.0 145.8,307.8 152.0,300.0 C 158.2,292.2 164.2,283.0 167.0,272.0 C 169.8,261.0 169.5,243.2 169.0,234.0 C 168.5,224.8 167.5,224.2 164.0,217.0 C 160.5,209.8 154.2,198.7 148.0,191.0 C 141.8,183.3 140.3,181.0 127.0,171.0 C 113.7,161.0 81.0,140.5 68.0,131.0 C 55.0,121.5 54.3,121.2 49.0,114.0 C 43.7,106.8 37.8,96.3 36.0,88.0 C 34.2,79.7 35.3,71.5 38.0,64.0 C 40.7,56.5 45.7,48.7 52.0,43.0 C 58.3,37.3 68.3,32.3 76.0,30.0 C 83.7,27.7 90.3,27.5 98.0,29.0 C 105.7,30.5 115.5,34.5 122.0,39.0 C 128.5,43.5 133.5,50.2 137.0,56.0 C 140.5,61.8 142.5,67.0 143.0,74.0 C 143.5,81.0 143.8,89.0 140.0,98.0 C 136.2,107.0 122.5,122.2 120.0,128.0 C 117.5,133.8 120.7,133.5 125.0,133.0 C 129.3,132.5 140.3,128.3 146.0,125.0 C 151.7,121.7 155.5,117.8 159.0,113.0 C 162.5,108.2 165.3,101.5 167.0,96.0 C 168.7,90.5 169.7,87.3 169.0,80.0 C 168.3,72.7 167.2,61.2 163.0,52.0 C 158.8,42.8 152.7,32.5 144.0,25.0 C 135.3,17.5 121.7,10.3 111.0,7.0 C 100.3,3.7 90.8,3.3 80.0,5.0 Z" fill="#1F4E5F"/>
</svg>
